<?xml version="1.0" encoding="UTF-8"?>
<svg id="_レイヤー_2" data-name="レイヤー 2" xmlns="http://www.w3.org/2000/svg" viewBox="0 0 348.38 40.71">
  <defs>
    <style>
      .cls-1 {
        fill: #fff;
      }
    </style>
  </defs>
  <g id="_レイヤー_1-2" data-name="レイヤー 1">
    <g>
      <path class="cls-1" d="M21.17,12.58c-.53-2.83-2.59-4.56-5.33-4.56-3.7,0-6.24,3.5-6.24,8.59s2.74,8.83,6.38,8.83c2.88,0,4.66-1.82,5.18-5.23h9.79c-.34,3.26-1.1,5.42-2.64,7.54-2.64,3.6-7.15,5.71-12.19,5.71C6.72,33.46,0,26.35,0,16.47S6.72,0,16.03,0c7.68,0,13.3,4.7,14.69,12.39l-9.55.19Z"/>
      <path class="cls-1" d="M59.86,21.31c0,6.82-5.62,12.05-13.01,12.05s-12.96-5.23-12.96-12.24,5.57-12.19,12.96-12.19,13.01,5.18,13.01,12.39ZM42.86,21.12c0,3.84,1.39,5.86,4.03,5.86s3.98-2.02,3.98-5.76-1.39-5.9-4.03-5.9-3.98,2.02-3.98,5.81Z"/>
      <path class="cls-1" d="M72.48,9.55v3.02c2.16-2.54,4.32-3.65,7.15-3.65s4.99,1.15,6.58,3.65c2.26-2.59,4.37-3.65,7.34-3.65,2.5,0,4.75.86,6.29,2.4,1.63,1.63,2.3,3.79,2.3,7.25v14.16h-8.98v-12.82c0-2.54-.91-3.79-2.74-3.79s-2.93,1.34-2.93,3.79v12.82h-8.98v-12.82c0-2.54-.86-3.79-2.69-3.79s-2.88,1.39-2.88,3.79v12.82h-8.98V9.55h8.5Z"/>
      <path class="cls-1" d="M116.4,9.55v2.06c1.92-1.92,3.74-2.69,6.48-2.69,6.48,0,10.56,4.85,10.56,12.48s-3.98,11.95-10.13,11.95c-2.59,0-4.61-.77-6.43-2.5v9.22h-8.98V9.55h8.5ZM116.54,21.07c0,3.46,1.44,5.42,3.98,5.42s3.94-1.97,3.94-5.38-1.49-5.33-3.94-5.33-3.98,2.02-3.98,5.28Z"/>
      <path class="cls-1" d="M137.9,17.91c.24-2.78.91-4.42,2.35-5.9,2.02-1.97,5.33-3.07,9.5-3.07,3.6,0,6.48.77,8.64,2.35,2.06,1.54,2.98,3.7,2.98,7.1v10.9c0,1.73.14,2.45.72,3.46h-8.69c-.38-.82-.58-1.34-.77-2.35-2.98,2.26-4.85,2.98-7.73,2.98-4.8,0-8.06-2.74-8.06-6.77s2.11-6.05,6.48-6.91l6.72-1.3c1.78-.34,2.54-.86,2.54-1.73,0-1.2-1.2-1.97-3.02-1.97-2.16,0-3.46,1.06-3.46,2.88v.34h-8.21ZM148.9,23.67q-2.06.67-2.59.96c-.58.34-.86.86-.86,1.49,0,1.2,1.01,1.97,2.54,1.97,2.78,0,4.75-1.87,4.75-4.51v-1.25l-3.84,1.34Z"/>
      <path class="cls-1" d="M175.05,9.55v2.74c1.97-2.4,3.94-3.36,6.86-3.36,2.5,0,4.61.77,6.19,2.3,1.73,1.63,2.5,3.89,2.5,7.1v14.4h-8.98v-12.62c0-2.35-1.06-3.6-3.02-3.6s-3.07,1.3-3.07,3.6v12.62h-8.98V9.55h8.5Z"/>
      <path class="cls-1" d="M202.46,9.55l2.4,8.54c.38,1.44.53,2.06,1.1,4.32.05.29.14.67.24,1.01.14-.53.24-.91.24-1.01.14-.53.24-1.01.38-1.49.1-.48.24-.96.38-1.44.14-.62.29-1.3.34-1.39l2.3-8.54h9.5l-8.45,23.19c-2.02,5.62-4.18,7.34-9.17,7.34h-6.34v-6.86h3.12c1.49,0,2.35-.67,2.35-1.87,0-.34-.14-.96-.38-1.58l-7.54-20.21h9.5Z"/>
      <path class="cls-1" d="M246.62,24.24h14.26v8.5h-24.19V.72h9.94v23.52Z"/>
      <path class="cls-1" d="M289.44,21.31c0,6.82-5.62,12.05-13.01,12.05s-12.96-5.23-12.96-12.24,5.57-12.19,12.96-12.19,13.01,5.18,13.01,12.39ZM272.44,21.12c0,3.84,1.39,5.86,4.03,5.86s3.98-2.02,3.98-5.76-1.39-5.9-4.03-5.9-3.98,2.02-3.98,5.81Z"/>
      <path class="cls-1" d="M317.95,9.55v19.87c0,7.34-4.27,11.28-12.19,11.28-6.91,0-11.19-2.83-11.52-7.63h8.64c.43,1.25,1.2,1.73,2.74,1.73,2.11,0,3.31-1.15,3.31-3.17v-2.4c-2.06,1.49-3.84,2.06-6.24,2.06-6,0-10.18-4.56-10.18-11.14s4.22-11.23,10.23-11.23c2.78,0,4.61.86,6.58,3.07v-2.45h8.64ZM301.29,20.35c0,2.74,1.68,4.7,4.03,4.7s3.98-1.97,3.98-4.66-1.63-4.75-4.03-4.75-3.98,1.97-3.98,4.7Z"/>
      <path class="cls-1" d="M348.38,21.31c0,6.82-5.62,12.05-13.01,12.05s-12.96-5.23-12.96-12.24,5.57-12.19,12.96-12.19,13.01,5.18,13.01,12.39ZM331.39,21.12c0,3.84,1.39,5.86,4.03,5.86s3.98-2.02,3.98-5.76-1.39-5.9-4.03-5.9-3.98,2.02-3.98,5.81Z"/>
    </g>
  </g>
</svg>